# xmcd
#
# Track frame offsets:
#	150
#	15905
#	37837
#	52196
#	72172
#	86114
#	103564
#	120810
#	134958
#	153208
#	171107
#	185359
#	204747
#
# Disc length: 2959 seconds
#
# Revision: 0
# Processed by: cddbd v1.5.2PL0 Copyright (c) Steve Scherf et al.
# Submitted via: EasyCDDAExtractor 15.2.5.1
#
DISCID=a80b8d0d
DTITLE=Dameen - For The Rest Of My Life
DYEAR=2000
DGENRE=Soul
TTITLE0=By All Means
TTITLE1=Open Arms
TTITLE2=So Smooth
TTITLE3=For the Rest of My Life
TTITLE4=Episode For Two
TTITLE5=Do It Live
TTITLE6=It Was Ment to Be
TTITLE7=I Won't Tell
TTITLE8=Back to Me
TTITLE9=Unconditional
TTITLE10=Special Type of Lady
TTITLE11=More Love
TTITLE12=Where Hope Lies
EXTD=
EXTT0=
EXTT1=
EXTT2=
EXTT3=
EXTT4=
EXTT5=
EXTT6=
EXTT7=
EXTT8=
EXTT9=
EXTT10=
EXTT11=
EXTT12=
PLAYORDER=
